<?xml version="1.0" encoding="utf-8"?>
<!-- Generator: Adobe Illustrator 27.6.1, SVG Export Plug-In . SVG Version: 6.00 Build 0)  -->
<svg version="1.1" id="Layer_1" xmlns="http://www.w3.org/2000/svg" xmlns:xlink="http://www.w3.org/1999/xlink" x="0px" y="0px"
	 viewBox="0 0 600 440.7" style="enable-background:new 0 0 600 440.7;" xml:space="preserve">
<style type="text/css">
	.st0{fill:#0053C2;}
	.st1{fill:#003B7E;}
	.st2{fill:#FFFFFF;}
</style>
<path class="st2" d="M425.2,412.7c-43.8,0-85-19.9-112.9-54.5l-10.2-12.6c-1.1-1.3-3.1-1.3-4.2,0l-10.2,12.6
	c-27.9,34.6-69.1,54.5-112.9,54.5C92.5,412.7,28,348.5,28,266.5V35.2c0-4,3.2-7.2,7.2-7.2h114.3c44.8,0,86.6,20,114.7,54.8
	l33.7,41.8c1.1,1.3,3.1,1.3,4.2,0l33.7-41.8C363.9,48,405.7,28,450.5,28h114.3c4,0,7.2,3.2,7.2,7.2v231.2
	C572,348.5,507.5,412.7,425.2,412.7L425.2,412.7C425.2,412.7,425.2,412.7,425.2,412.7z M297.2,296.7c1.4-1.8,4.2-1.8,5.6,0
	l33.8,41.9c22,27.2,54.3,42.8,88.6,42.8h0c64.8,0,115.5-50.5,115.5-114.9V63.8c0-2.5-2-4.5-4.5-4.5h-85.7
	c-35.3,0-68.2,15.7-90.3,43.2l-57.4,71.1c-1.4,1.8-4.2,1.8-5.6,0l-57.4-71c-22.1-27.4-55.1-43.2-90.3-43.2H63.8
	c-2.5,0-4.5,2-4.5,4.5v202.7c0,64.4,50.7,114.9,115.5,114.9c34.3,0,66.6-15.6,88.6-42.8L297.2,296.7z"/>
<g>
	<path class="st2" d="M450.5,132.3c-13.1,0-25.3,5.8-33.5,16l-67.3,83.4c-1.6,2-1.6,4.8,0,6.8l43.8,54.2
		c8.3,10.3,19.3,15.7,31.8,15.7c20.9,0,42.5-15.7,42.5-41.9V135.9c0-2-1.6-3.6-3.6-3.6H450.5z M436.4,266.5
		c0,7.1-4.8,10.6-10.1,10.6c-3.4,0-6.5-1.6-9.4-5.2l-27-33.4c-1.6-2-1.6-4.8,0-6.8l41.7-51.7c1.6-2,4.8-0.9,4.8,1.7V266.5z"/>
	<path class="st2" d="M135.9,132.3c-2,0-3.6,1.6-3.6,3.6v130.6c0,26.2,21.6,41.9,42.5,41.9c12.5,0,23.5-5.4,31.8-15.7l43.8-54.2
		c1.6-2,1.6-4.8,0-6.8L183,148.3c-8.2-10.2-20.4-16-33.5-16H135.9z M168.4,180l41.7,51.7c1.6,2,1.6,4.8,0,6.8l-27,33.4
		c-2.9,3.6-6,5.2-9.4,5.2c-5.3,0-10.1-3.5-10.1-10.6v-84.7C163.6,179.2,166.8,178.1,168.4,180z"/>
</g>
<path class="st2" d="M247.2,325.5c-12.7,15.6-38.3,35.1-72.4,35.1c-54,0-94.6-44-94.6-94.1V83.8c0-2,1.6-3.6,3.6-3.6h65.7
	c28.9,0,55.9,12.9,74.1,35.4l153.6,190.3c14.1,17.5,32.2,23.4,48.6,23.4c30.9,0,62.7-23.9,62.7-62.8V115.1c0-2-1.6-3.6-3.6-3.6
	h-34.4c-19.4,0-37.5,8.7-49.7,23.8l-65.1,80.7c-1.1,1.3-3.1,1.3-4.2,0l-16.6-20.6c-0.8-1-0.8-2.4,0-3.4l61.6-76.3
	c18.2-22.5,45.2-35.4,74.1-35.4h65.7c2,0,3.6,1.6,3.6,3.6v182.7c0,50.1-40.6,94.1-94.6,94.1c-34.1,0-59.7-19.5-72.4-35.1
	L199.2,135.2c-12.2-15.1-30.3-23.8-49.7-23.8h-34.4c-2,0-3.6,1.6-3.6,3.6v151.4c0,38.9,31.8,62.8,62.7,62.8
	c16.5,0,34.5-5.9,48.6-23.4l41.6-51.5c1.1-1.3,3.1-1.3,4.2,0l16.6,20.6c0.8,1,0.8,2.4,0,3.4L247.2,325.5z"/>
</svg>
