<?xml version="1.0" encoding="utf-8"?>
<!-- Generator: Adobe Illustrator 27.6.1, SVG Export Plug-In . SVG Version: 6.00 Build 0)  -->
<svg version="1.1" id="Layer_1" xmlns="http://www.w3.org/2000/svg" xmlns:xlink="http://www.w3.org/1999/xlink" x="0px" y="0px"
	 viewBox="0 0 1169 301" style="enable-background:new 0 0 1169 301;" xml:space="preserve">
<style type="text/css">
	.st0{fill:#0053C2;}
	.st1{fill:#003B7E;}
	.st2{fill:#FFFFFF;}
</style>
<g>
	<g>
		<path d="M270.9,242.1c-20.4,0-39.5-9.2-52.5-25.3l-4.7-5.9c-0.5-0.6-1.5-0.6-2,0l-4.7,5.9c-13,16.1-32.1,25.3-52.5,25.3
			c-38.3,0-68.3-29.9-68.3-68V66.6c0-1.9,1.5-3.4,3.4-3.4h53.1c20.8,0,40.2,9.3,53.3,25.5l15.7,19.4c0.5,0.6,1.5,0.6,2,0l15.7-19.4
			c13.1-16.2,32.5-25.5,53.3-25.5h53.1c1.9,0,3.4,1.5,3.4,3.4v107.5C339.1,212.2,309.1,242.1,270.9,242.1L270.9,242.1
			C270.9,242.1,270.9,242.1,270.9,242.1z M211.4,188.2c0.7-0.8,1.9-0.8,2.6,0l15.7,19.5c10.2,12.7,25.2,19.9,41.2,19.9h0
			c30.1,0,53.7-23.5,53.7-53.4V79.9c0-1.2-0.9-2.1-2.1-2.1h-39.8c-16.4,0-31.7,7.3-42,20.1l-26.7,33c-0.7,0.8-1.9,0.8-2.6,0
			l-26.7-33c-10.3-12.8-25.6-20.1-42-20.1h-39.8c-1.2,0-2.1,0.9-2.1,2.1v94.2c0,30,23.6,53.4,53.7,53.4c16,0,31-7.3,41.2-19.9
			L211.4,188.2z"/>
		<g>
			<path d="M282.6,111.7c-6.1,0-11.8,2.7-15.6,7.4l-31.3,38.8c-0.7,0.9-0.7,2.2,0,3.2l20.3,25.2c3.9,4.8,9,7.3,14.8,7.3
				c9.7,0,19.8-7.3,19.8-19.5v-60.7c0-0.9-0.8-1.7-1.7-1.7H282.6z M276.1,174.1c0,3.3-2.2,4.9-4.7,4.9c-1.6,0-3-0.8-4.4-2.4
				l-12.5-15.5c-0.7-0.9-0.7-2.2,0-3.2l19.4-24c0.7-0.9,2.2-0.4,2.2,0.8V174.1z"/>
			<path d="M136.4,111.7c-0.9,0-1.7,0.8-1.7,1.7v60.7c0,12.2,10,19.5,19.8,19.5c5.8,0,10.9-2.5,14.8-7.3l20.3-25.2
				c0.7-0.9,0.7-2.2,0-3.2l-31.3-38.8c-3.8-4.7-9.5-7.4-15.6-7.4H136.4z M151.5,133.9l19.4,24c0.7,0.9,0.7,2.2,0,3.2l-12.5,15.5
				c-1.3,1.7-2.8,2.4-4.4,2.4c-2.5,0-4.7-1.6-4.7-4.9v-39.4C149.2,133.5,150.7,133,151.5,133.9z"/>
		</g>
		<path d="M188.1,201.5c-5.9,7.3-17.8,16.3-33.7,16.3c-25.1,0-44-20.5-44-43.8v-85c0-0.9,0.8-1.7,1.7-1.7h30.6
			c13.4,0,26,6,34.5,16.5l71.4,88.5c6.6,8.1,15,10.9,22.6,10.9c14.4,0,29.2-11.1,29.2-29.2v-70.4c0-0.9-0.8-1.7-1.7-1.7h-16
			c-9,0-17.5,4-23.1,11.1l-30.3,37.5c-0.5,0.6-1.5,0.6-2,0l-7.7-9.6c-0.4-0.5-0.4-1.1,0-1.6l28.7-35.5c8.4-10.5,21-16.5,34.5-16.5
			h30.6c0.9,0,1.7,0.8,1.7,1.7v85c0,23.3-18.9,43.8-44,43.8c-15.9,0-27.8-9.1-33.7-16.3l-71.4-88.5c-5.7-7-14.1-11.1-23.1-11.1h-16
			c-0.9,0-1.7,0.8-1.7,1.7v70.4c0,18.1,14.8,29.2,29.2,29.2c7.7,0,16.1-2.8,22.6-10.9l19.3-23.9c0.5-0.6,1.5-0.6,2,0l7.7,9.6
			c0.4,0.5,0.4,1.1,0,1.6L188.1,201.5z"/>
	</g>
	<path d="M642.2,99.7l-9.4-11.6c-0.5-0.6-1.2-0.9-2-0.9h-52.6c-0.8,0-1.5,0.3-2,0.9L567,99.7c-0.4,0.4-0.6,1-0.6,1.6v116.5h18v-39.8
		c0-0.9,0.8-1.7,1.7-1.7h37.1c0.9,0,1.7,0.8,1.7,1.7v39.8h18V101.3C642.8,100.7,642.6,100.2,642.2,99.7z M584.4,156.8v-49.9
		c0-0.9,0.8-1.7,1.7-1.7h37.1c0.9,0,1.7,0.8,1.7,1.7v49.9c0,0.9-0.8,1.7-1.7,1.7H586C585.1,158.5,584.4,157.7,584.4,156.8z"/>
	<path d="M973.8,87.2h-18v111c0,0.9-0.8,1.7-1.7,1.7h-37.1c-0.9,0-1.7-0.8-1.7-1.7v-111h-18v116.5c0,0.6,0.2,1.1,0.6,1.6l9.4,11.6
		c0.5,0.6,1.2,0.9,2,0.9h52.6c0.8,0,1.5-0.3,2-0.9l9.4-11.6c0.4-0.4,0.6-1,0.6-1.6V87.2z"/>
	<path d="M402.2,217.9h18v-111c0-0.9,0.8-1.7,1.7-1.7h32.9c0.9,0,1.7,0.8,1.7,1.7v111h18V104.1l-6.7-2.8c0-0.6-0.2-1.1-0.6-1.6
		l-9.4-11.6c-0.5-0.6-1.2-0.9-2-0.9h-41.7c-0.8,0-1.5,0.3-2,0.9l-9.4,11.6c-0.4,0.4-0.6,1-0.6,1.6V217.9z"/>
	<path d="M456.4,217.9h18v-111c0-0.9,0.8-1.7,1.7-1.7h32.9c0.9,0,1.7,0.8,1.7,1.7v111h18V101.3c0-0.6-0.2-1.1-0.6-1.6l-9.4-11.6
		c-0.5-0.6-1.2-0.9-2-0.9H475c-0.8,0-1.5,0.3-2,0.9l-9.4,11.6c-0.4,0.4-0.6,1-0.6,1.6l-6.7,3.2V217.9z"/>
	<path d="M1035.4,105.2h49.5v-18h-69.2v116.5c0,0.6,0.2,1.1,0.6,1.6l9.4,11.6c0.5,0.6,1.2,0.9,2,0.9h54.6v-18h-46.8
		c-0.9,0-1.7-0.8-1.7-1.7v-35c0-0.9,0.8-1.7,1.7-1.7h40.5v-18h-40.5c-0.9,0-1.7-0.8-1.7-1.7v-35
		C1033.7,105.9,1034.5,105.2,1035.4,105.2z"/>
	<path d="M745.5,156.1l-9.4-11.6c-0.5-0.6-1.2-0.9-2-0.9h-37.6c-0.9,0-1.7-0.8-1.7-1.7v-35c0-0.9,0.8-1.7,1.7-1.7h49.5v-18h-57.3
		c-0.8,0-1.5,0.3-2,0.9l-9.4,11.6c-0.4,0.4-0.6,1-0.6,1.6v46.1c0,0.6,0.2,1.1,0.6,1.6l9.4,11.6c0.5,0.6,1.2,0.9,2,0.9h37.6
		c0.9,0,1.7,0.8,1.7,1.7v36.7h-51.2v18h57.3c0.8,0,1.5-0.3,2-0.9l9.4-11.6c0.4-0.4,0.6-1,0.6-1.6v-46.1
		C746.1,157.1,745.9,156.5,745.5,156.1z"/>
	<path d="M857.7,99.7l-9.4-11.6c-0.5-0.6-1.2-0.9-2-0.9h-52.6c-0.8,0-1.5,0.3-2,0.9l-9.4,11.6c-0.4,0.4-0.6,1-0.6,1.6v102.4
		c0,0.6,0.2,1.1,0.6,1.6l9.4,11.6c0.5,0.6,1.2,0.9,2,0.9H809c1.1,0,2.2,0.5,2.8,1.5l10.7,15.8c0.3,0.5,0.8,0.7,1.4,0.7h21.5
		c0.7,0,1.1-0.8,0.7-1.4l-12.3-15.2c-0.4-0.5-0.1-1.4,0.7-1.4h12c0.8,0,1.5-0.3,2-0.9l9.4-11.6c0.4-0.4,0.6-1,0.6-1.6V101.3
		C858.3,100.7,858.1,100.2,857.7,99.7z M840.3,198.2c0,0.9-0.8,1.7-1.7,1.7h-37.1c-0.9,0-1.7-0.8-1.7-1.7v-91.4
		c0-0.9,0.8-1.7,1.7-1.7h37.1c0.9,0,1.7,0.8,1.7,1.7V198.2z"/>
</g>
</svg>
