<?xml version="1.0" encoding="utf-8"?>
<!-- Generator: Adobe Illustrator 27.6.1, SVG Export Plug-In . SVG Version: 6.00 Build 0)  -->
<svg version="1.1" id="Layer_1" xmlns="http://www.w3.org/2000/svg" xmlns:xlink="http://www.w3.org/1999/xlink" x="0px" y="0px"
	 viewBox="0 0 800 803.1" style="enable-background:new 0 0 800 803.1;" xml:space="preserve">
<style type="text/css">
	.st0{fill:#0053C2;}
	.st1{fill:#003B7E;}
	.st2{fill:#FFFFFF;}
</style>
<g>
	<path d="M311.6,105.1l-8.4-10.4c-0.4-0.5-1.1-0.8-1.8-0.8h-47.2c-0.7,0-1.3,0.3-1.8,0.8l-8.4,10.4c-0.3,0.4-0.5,0.9-0.5,1.4v104.5
		h16.1v-35.6c0-0.8,0.7-1.5,1.5-1.5h33.2c0.8,0,1.5,0.7,1.5,1.5v35.6h16.1V106.6C312.1,106,311.9,105.5,311.6,105.1z M259.7,156.3
		v-44.8c0-0.8,0.7-1.5,1.5-1.5h33.2c0.8,0,1.5,0.7,1.5,1.5v44.8c0,0.8-0.7,1.5-1.5,1.5h-33.2C260.4,157.8,259.7,157.1,259.7,156.3z"
		/>
	<path d="M608.9,93.9h-16.1v99.5c0,0.8-0.7,1.5-1.5,1.5H558c-0.8,0-1.5-0.7-1.5-1.5V93.9h-16.1v104.5c0,0.5,0.2,1,0.5,1.4l8.4,10.4
		c0.4,0.5,1.1,0.8,1.8,0.8h47.2c0.7,0,1.3-0.3,1.8-0.8l8.4-10.4c0.3-0.4,0.5-0.9,0.5-1.4V93.9z"/>
	<path d="M209.1,105.1l-8.4-10.4c-0.4-0.5-1.1-0.8-1.8-0.8h-37.4c-0.7,0-1.3,0.3-1.8,0.8l-6.9,8.5l-6.9-8.5
		c-0.4-0.5-1.1-0.8-1.8-0.8H107c-0.7,0-1.3,0.3-1.8,0.8l-8.4,10.4c-0.3,0.4-0.5,0.9-0.5,1.4v104.5h16.1v-99.5c0-0.8,0.7-1.5,1.5-1.5
		h29.5c0.8,0,1.5,0.7,1.5,1.5v99.5H161v-99.5c0-0.8,0.7-1.5,1.5-1.5H192c0.8,0,1.5,0.7,1.5,1.5v99.5h16.1V106.6
		C209.6,106,209.5,105.5,209.1,105.1z"/>
	<path d="M664.1,110h44.4V93.9h-62v104.5c0,0.5,0.2,1,0.5,1.4l8.4,10.4c0.4,0.5,1.1,0.8,1.8,0.8h48.9v-16.1h-42
		c-0.8,0-1.5-0.7-1.5-1.5V162c0-0.8,0.7-1.5,1.5-1.5h36.3v-16.1h-36.3c-0.8,0-1.5-0.7-1.5-1.5v-31.4
		C662.6,110.7,663.3,110,664.1,110z"/>
	<path d="M404.2,155.7l-8.4-10.4c-0.4-0.5-1.1-0.8-1.8-0.8h-33.7c-0.8,0-1.5-0.7-1.5-1.5v-31.4c0-0.8,0.7-1.5,1.5-1.5h44.4V93.9
		h-51.4c-0.7,0-1.3,0.3-1.8,0.8l-8.4,10.4c-0.3,0.4-0.5,0.9-0.5,1.4v41.3c0,0.5,0.2,1,0.5,1.4l8.4,10.4c0.4,0.5,1.1,0.8,1.8,0.8
		h33.7c0.8,0,1.5,0.7,1.5,1.5v32.9h-45.9v16.1H394c0.7,0,1.3-0.3,1.8-0.8l8.4-10.4c0.3-0.4,0.5-0.9,0.5-1.4v-41.3
		C404.7,156.6,404.5,156.1,404.2,155.7z"/>
	<path d="M504.8,105.1l-8.4-10.4c-0.4-0.5-1.1-0.8-1.8-0.8h-47.2c-0.7,0-1.3,0.3-1.8,0.8l-8.4,10.4c-0.3,0.4-0.5,0.9-0.5,1.4v91.8
		c0,0.5,0.2,1,0.5,1.4l8.4,10.4c0.4,0.5,1.1,0.8,1.8,0.8h13.6c1,0,1.9,0.5,2.5,1.3l9.6,14.1c0.3,0.4,0.7,0.7,1.2,0.7h19.3
		c0.6,0,1-0.7,0.6-1.2l-11-13.7c-0.4-0.5,0-1.2,0.6-1.2h10.7c0.7,0,1.3-0.3,1.8-0.8l8.4-10.4c0.3-0.4,0.5-0.9,0.5-1.4v-91.8
		C505.3,106,505.1,105.5,504.8,105.1z M489.2,193.4c0,0.8-0.7,1.5-1.5,1.5h-33.2c-0.8,0-1.5-0.7-1.5-1.5v-81.9
		c0-0.8,0.7-1.5,1.5-1.5h33.2c0.8,0,1.5,0.7,1.5,1.5V193.4z"/>
</g>
<g>
	<path class="st0" d="M540.9,709.2c-49.3,0-95.6-22.3-127.1-61.3l-11.4-14.2c-1.2-1.5-3.5-1.5-4.7,0l-11.4,14.2
		c-31.4,39-77.8,61.3-127.1,61.3c-92.6,0-165.2-72.3-165.2-164.6V284.4c0-4.5,3.6-8.1,8.1-8.1h128.6c50.4,0,97.4,22.5,129,61.7
		l37.9,47c1.2,1.5,3.5,1.5,4.7,0l38-47c31.6-39.2,78.7-61.7,129-61.7H698c4.5,0,8.1,3.6,8.1,8.1v260.2
		C706.1,636.9,633.5,709.2,540.9,709.2L540.9,709.2C540.9,709.2,540.9,709.2,540.9,709.2z M396.8,578.7c1.6-2,4.7-2,6.3,0l38,47.1
		c24.7,30.6,61.1,48.2,99.7,48.2h0c72.9,0,130-56.8,130-129.3V316.6c0-2.8-2.3-5.1-5.1-5.1h-96.4c-39.7,0-76.7,17.7-101.6,48.6
		l-64.6,80c-1.6,2-4.7,2-6.3,0l-64.6-80c-24.9-30.9-62-48.6-101.6-48.6h-96.4c-2.8,0-5.1,2.3-5.1,5.1v228.1
		c0,72.5,57.1,129.3,130,129.3c38.6,0,75-17.6,99.7-48.2L396.8,578.7z"/>
	<g>
		<path class="st0" d="M569.4,393.6c-14.7,0-28.5,6.6-37.7,18l-75.8,93.8c-1.8,2.2-1.8,5.4,0,7.7l49.2,61
			c9.3,11.5,21.7,17.7,35.8,17.7c23.5,0,47.8-17.6,47.8-47.2V397.7c0-2.2-1.8-4.1-4.1-4.1H569.4z M553.5,544.6c0,8-5.4,12-11.4,12
			c-3.9,0-7.4-1.8-10.6-5.9l-30.3-37.6c-1.8-2.2-1.8-5.4,0-7.7l46.9-58.1c1.8-2.2,5.4-1,5.4,1.9V544.6z"/>
		<path class="st0" d="M215.3,393.6c-2.2,0-4.1,1.8-4.1,4.1v146.9c0,29.5,24.3,47.2,47.8,47.2c14.1,0,26.4-6.1,35.8-17.7l49.2-61
			c1.8-2.2,1.8-5.4,0-7.7l-75.8-93.8c-9.2-11.5-23-18-37.7-18H215.3z M251.9,447.4l46.9,58.1c1.8,2.2,1.8,5.4,0,7.7l-30.3,37.6
			c-3.2,4-6.7,5.9-10.6,5.9c-6,0-11.4-3.9-11.4-12v-95.4C246.5,446.4,250.1,445.1,251.9,447.4z"/>
	</g>
	<path class="st1" d="M340.5,611c-14.3,17.6-43.1,39.5-81.5,39.5c-60.8,0-106.5-49.5-106.5-105.9V339c0-2.2,1.8-4.1,4.1-4.1h74
		c32.5,0,62.9,14.5,83.4,39.8l172.9,214.1c15.9,19.7,36.2,26.4,54.7,26.4c34.8,0,70.6-26.8,70.6-70.6V374.2c0-2.2-1.8-4.1-4.1-4.1
		h-38.8c-21.9,0-42.3,9.8-56,26.8l-73.3,90.8c-1.2,1.5-3.5,1.5-4.7,0l-18.7-23.2c-0.9-1.1-0.9-2.7,0-3.8l69.4-85.9
		c20.4-25.3,50.8-39.8,83.4-39.8h74c2.2,0,4.1,1.8,4.1,4.1v205.6c0,56.4-45.7,105.9-106.5,105.9c-38.4,0-67.2-21.9-81.5-39.5
		L286.6,396.9c-13.7-17-34.1-26.8-56-26.8h-38.8c-2.2,0-4.1,1.8-4.1,4.1v170.4c0,43.8,35.8,70.6,70.6,70.6
		c18.5,0,38.9-6.7,54.7-26.4l46.8-58c1.2-1.5,3.5-1.5,4.7,0l18.7,23.2c0.9,1.1,0.9,2.7,0,3.8L340.5,611z"/>
</g>
</svg>
